<mxfile host="app.diagrams.net" modified="2023-11-19T02:10:20.622Z" agent="Mozilla/5.0 (Windows NT 10.0; Win64; x64) AppleWebKit/537.36 (KHTML, like Gecko) Chrome/120.0.0.0 Safari/537.36 Edg/120.0.0.0" etag="hp5iiIYBtr-kaHmzqVjg" version="22.1.3" type="github">
  <diagram name="Page-1" id="4qVq3lAHbVwpSTwTRf0C">
    <mxGraphModel dx="1155" dy="620" grid="1" gridSize="10" guides="1" tooltips="1" connect="1" arrows="1" fold="1" page="1" pageScale="1" pageWidth="850" pageHeight="1100" math="0" shadow="0">
      <root>
        <mxCell id="0" />
        <mxCell id="1" parent="0" />
        <mxCell id="JeXXdCt3tAEtwgr_0Mxh-26" value="Serena App" style="strokeColor=#dddddd;shadow=1;strokeWidth=1;rounded=1;absoluteArcSize=1;arcSize=2;labelPosition=center;verticalLabelPosition=middle;align=center;verticalAlign=bottom;spacingLeft=0;fontColor=#999999;fontSize=12;whiteSpace=wrap;spacingBottom=2;html=1;" parent="1" vertex="1">
          <mxGeometry x="75" y="341.5" width="70" height="85" as="geometry" />
        </mxCell>
        <mxCell id="JeXXdCt3tAEtwgr_0Mxh-27" value="" style="sketch=0;dashed=0;connectable=0;html=1;fillColor=#757575;strokeColor=none;shape=mxgraph.gcp2.phone;part=1;" parent="JeXXdCt3tAEtwgr_0Mxh-26" vertex="1">
          <mxGeometry x="0.5" width="32" height="50" relative="1" as="geometry">
            <mxPoint x="-16" y="10" as="offset" />
          </mxGeometry>
        </mxCell>
        <mxCell id="JeXXdCt3tAEtwgr_0Mxh-68" value="asia-southeast2" style="sketch=0;points=[[0,0,0],[0.25,0,0],[0.5,0,0],[0.75,0,0],[1,0,0],[1,0.25,0],[1,0.5,0],[1,0.75,0],[1,1,0],[0.75,1,0],[0.5,1,0],[0.25,1,0],[0,1,0],[0,0.75,0],[0,0.5,0],[0,0.25,0]];rounded=1;absoluteArcSize=1;arcSize=2;html=1;strokeColor=none;gradientColor=none;shadow=0;dashed=0;fontSize=12;fontColor=#9E9E9E;align=left;verticalAlign=top;spacing=10;spacingTop=-4;whiteSpace=wrap;fillColor=#D6FFE8;glass=0;container=0;" parent="1" vertex="1">
          <mxGeometry x="210" y="60" width="560" height="400" as="geometry">
            <mxRectangle x="210" y="60" width="140" height="40" as="alternateBounds" />
          </mxGeometry>
        </mxCell>
        <mxCell id="JeXXdCt3tAEtwgr_0Mxh-113" style="edgeStyle=orthogonalEdgeStyle;shape=connector;rounded=0;orthogonalLoop=1;jettySize=auto;html=1;exitX=0.5;exitY=1;exitDx=0;exitDy=0;dashed=0;labelBackgroundColor=default;strokeColor=#4284F3;strokeWidth=2;align=center;verticalAlign=middle;fontFamily=Helvetica;fontSize=12;fontColor=default;endArrow=blockThin;endFill=1;startSize=4;endSize=4;" parent="1" source="JeXXdCt3tAEtwgr_0Mxh-93" target="JeXXdCt3tAEtwgr_0Mxh-109" edge="1">
          <mxGeometry relative="1" as="geometry" />
        </mxCell>
        <mxCell id="JeXXdCt3tAEtwgr_0Mxh-153" style="edgeStyle=orthogonalEdgeStyle;shape=connector;rounded=0;orthogonalLoop=1;jettySize=auto;html=1;dashed=0;labelBackgroundColor=default;strokeColor=#4284F3;strokeWidth=2;align=center;verticalAlign=middle;fontFamily=Helvetica;fontSize=12;fontColor=default;endArrow=blockThin;endFill=1;startSize=4;endSize=4;startArrow=blockThin;startFill=1;" parent="1" source="JeXXdCt3tAEtwgr_0Mxh-93" target="JeXXdCt3tAEtwgr_0Mxh-146" edge="1">
          <mxGeometry relative="1" as="geometry" />
        </mxCell>
        <mxCell id="JeXXdCt3tAEtwgr_0Mxh-93" value="" style="shape=mxgraph.gcp2.doubleRect;strokeColor=#dddddd;shadow=1;strokeWidth=1;rounded=1;absoluteArcSize=1;arcSize=2;" parent="1" vertex="1">
          <mxGeometry x="268" y="350" width="170" height="68" as="geometry" />
        </mxCell>
        <mxCell id="JeXXdCt3tAEtwgr_0Mxh-94" value="&lt;font color=&quot;#000000&quot;&gt;serena-backend&lt;/font&gt;&lt;br&gt;Cloud Run" style="editableCssRules=.*;html=1;fontColor=#999999;shape=image;verticalLabelPosition=middle;labelBackgroundColor=#ffffff;verticalAlign=middle;labelPosition=right;align=left;spacingLeft=20;part=1;points=[];imageAspect=0;image=data:image/svg+xml,PHN2ZyB4bWxucz0iaHR0cDovL3d3dy53My5vcmcvMjAwMC9zdmciIHhtbG5zOnY9Imh0dHBzOi8vdmVjdGEuaW8vbmFubyIgd2lkdGg9IjM2NS40NjQ5OTY3NzA0MjQ5MyIgaGVpZ2h0PSIzNzkuMjIyOTk0NDYzNTc3OTUiIHZpZXdCb3g9IjAgMCA5Ni42OTU5OTkxNDU1MDc4MSAxMDAuMzM1OTk4NTM1MTU2MjUiPiYjeGE7PHN0eWxlIHR5cGU9InRleHQvY3NzIj4mI3hhOwkuc3Qwe2ZpbGw6IzQyODVmNDt9JiN4YTsJLnN0MXtmaWxsOiNhZWNiZmE7fSYjeGE7PC9zdHlsZT4mI3hhOwk8cGF0aCBjbGFzcz0ic3QwIiBkPSJNMjkuNzk0IDEwMC4zMzZMNDYuOTIgNTAuMTY4aDQ5Ljc3NnpNMCA5OS42NzFsMTIuOTc2LTQ5LjUwMkgyOS4yMkwxNi44OTcgOTIuMDU0eiIvPiYjeGE7CTxwYXRoIGNsYXNzPSJzdDEiIGQ9Ik0yOS43OTQgMEw0Ni45MiA1MC4xNjhoNDkuNzc2ek0wIC42NjZsMTIuOTc2IDQ5LjUwMkgyOS4yMkwxNi44OTcgOC4yODN6Ii8+JiN4YTs8L3N2Zz4=;" parent="JeXXdCt3tAEtwgr_0Mxh-93" vertex="1">
          <mxGeometry width="30" height="30" relative="1" as="geometry">
            <mxPoint x="15" y="15" as="offset" />
          </mxGeometry>
        </mxCell>
        <mxCell id="JeXXdCt3tAEtwgr_0Mxh-95" value="" style="edgeStyle=orthogonalEdgeStyle;fontSize=12;html=1;endArrow=blockThin;endFill=1;rounded=0;strokeWidth=2;endSize=4;startSize=4;dashed=0;strokeColor=#4284F3;entryX=0;entryY=0.5;entryDx=0;entryDy=0;exitX=1;exitY=0.5;exitDx=0;exitDy=0;startArrow=blockThin;startFill=1;" parent="1" source="JeXXdCt3tAEtwgr_0Mxh-26" target="JeXXdCt3tAEtwgr_0Mxh-93" edge="1">
          <mxGeometry width="100" relative="1" as="geometry">
            <mxPoint x="110" y="330" as="sourcePoint" />
            <mxPoint x="210" y="330" as="targetPoint" />
          </mxGeometry>
        </mxCell>
        <mxCell id="JeXXdCt3tAEtwgr_0Mxh-109" value="SerenBox" style="strokeColor=#dddddd;shadow=1;strokeWidth=1;rounded=1;absoluteArcSize=1;arcSize=2;labelPosition=center;verticalLabelPosition=middle;align=center;verticalAlign=bottom;spacingLeft=0;fontColor=#999999;fontSize=12;whiteSpace=wrap;spacingBottom=2;html=1;fontFamily=Helvetica;" parent="1" vertex="1">
          <mxGeometry x="318" y="510" width="70" height="85" as="geometry" />
        </mxCell>
        <mxCell id="JeXXdCt3tAEtwgr_0Mxh-110" value="" style="sketch=0;dashed=0;connectable=0;html=1;fillColor=#757575;strokeColor=none;shape=mxgraph.gcp2.webcam;part=1;fontFamily=Helvetica;fontSize=12;fontColor=default;" parent="JeXXdCt3tAEtwgr_0Mxh-109" vertex="1">
          <mxGeometry x="0.5" width="25" height="50" relative="1" as="geometry">
            <mxPoint x="-12.5" y="10" as="offset" />
          </mxGeometry>
        </mxCell>
        <mxCell id="JeXXdCt3tAEtwgr_0Mxh-134" style="edgeStyle=orthogonalEdgeStyle;shape=connector;rounded=0;orthogonalLoop=1;jettySize=auto;html=1;dashed=0;labelBackgroundColor=default;strokeColor=#4284F3;strokeWidth=2;align=center;verticalAlign=middle;fontFamily=Helvetica;fontSize=12;fontColor=default;endArrow=blockThin;endFill=1;startSize=4;endSize=4;startArrow=blockThin;startFill=1;" parent="1" source="JeXXdCt3tAEtwgr_0Mxh-128" target="JeXXdCt3tAEtwgr_0Mxh-93" edge="1">
          <mxGeometry relative="1" as="geometry" />
        </mxCell>
        <mxCell id="JeXXdCt3tAEtwgr_0Mxh-128" value="" style="strokeColor=#dddddd;shadow=1;strokeWidth=1;rounded=1;absoluteArcSize=1;arcSize=2;fontFamily=Helvetica;fontSize=12;fontColor=default;" parent="1" vertex="1">
          <mxGeometry x="288" y="133" width="130" height="60" as="geometry" />
        </mxCell>
        <mxCell id="JeXXdCt3tAEtwgr_0Mxh-129" value="&lt;font color=&quot;#000000&quot;&gt;serena_db&lt;/font&gt;&lt;br&gt;Cloud SQL" style="editableCssRules=.*;html=1;fontColor=#999999;shape=image;verticalLabelPosition=middle;labelBackgroundColor=#ffffff;verticalAlign=middle;labelPosition=right;align=left;spacingLeft=20;part=1;points=[];imageAspect=0;image=data:image/svg+xml,PHN2ZyB4bWxucz0iaHR0cDovL3d3dy53My5vcmcvMjAwMC9zdmciIHhtbG5zOnY9Imh0dHBzOi8vdmVjdGEuaW8vbmFubyIgd2lkdGg9IjE0LjY1OTk5OTg0NzQxMjExIiBoZWlnaHQ9IjIwIiB2aWV3Qm94PSIwIDAgMTQuNjU5OTk5ODQ3NDEyMTEgMjAiPiYjeGE7CTxzdHlsZSB0eXBlPSJ0ZXh0L2NzcyI+JiN4YTsJLnN0MHtmaWxsOiM0Mjg1ZjQ7fSYjeGE7CS5zdDF7ZmlsbDojNjY5ZGY2O30mI3hhOwkuc3Qye2ZpbGw6I2FlY2JmYTt9JiN4YTsJPC9zdHlsZT4mI3hhOwk8c3R5bGU+JiN4YTsJCS5Ee2ZpbGwtcnVsZTpldmVub2RkfSYjeGE7CTwvc3R5bGU+JiN4YTsJPHBhdGggZD0iTTcuMzMgMTUuMzV2LTMuMDFMMCA4LjQ0djMuMDF6bTAgNC42NXYtMy4wMUwwIDEzLjA5djMuMDF6IiBjbGFzcz0ic3QyIEQiLz4mI3hhOwk8cGF0aCBkPSJNMTQuNjYgOC40NGwtNy4zMyAzLjl2My4wMWw3LjMzLTMuOXptMCA0LjY1bC03LjMzIDMuOVYyMGw3LjMzLTMuOXoiIGNsYXNzPSJzdDEgRCIvPiYjeGE7CTxwYXRoIGQ9Ik03LjMzIDB2My4wMWw3LjMzIDMuOVYzLjl6IiBjbGFzcz0ic3QwIEQiLz4mI3hhOwk8cGF0aCBkPSJNMCA2LjkxbDcuMzMtMy45VjBMMCAzLjl6IiBjbGFzcz0iRCBzdDEiLz4mI3hhOwk8cGF0aCBkPSJNNy4zMyAxMC43OVY3Ljc3TDAgMy44N3YzLjAyeiIgY2xhc3M9IkQgc3QyIi8+JiN4YTsJPHBhdGggZD0iTTE0LjY2IDMuODdsLTcuMzMgMy45djMuMDJsNy4zMy0zLjl6IiBjbGFzcz0iRCBzdDEiLz4mI3hhOzwvc3ZnPg==;fontFamily=Helvetica;fontSize=12;" parent="JeXXdCt3tAEtwgr_0Mxh-128" vertex="1">
          <mxGeometry width="22" height="30" relative="1" as="geometry">
            <mxPoint x="19" y="15" as="offset" />
          </mxGeometry>
        </mxCell>
        <mxCell id="JeXXdCt3tAEtwgr_0Mxh-139" value="" style="group" parent="1" vertex="1" connectable="0">
          <mxGeometry x="519" y="84" width="231" height="214" as="geometry" />
        </mxCell>
        <mxCell id="JeXXdCt3tAEtwgr_0Mxh-135" value="Object Storage" style="sketch=0;points=[[0,0,0],[0.25,0,0],[0.5,0,0],[0.75,0,0],[1,0,0],[1,0.25,0],[1,0.5,0],[1,0.75,0],[1,1,0],[0.75,1,0],[0.5,1,0],[0.25,1,0],[0,1,0],[0,0.75,0],[0,0.5,0],[0,0.25,0]];rounded=1;absoluteArcSize=1;arcSize=2;html=1;strokeColor=none;gradientColor=none;shadow=0;dashed=0;fontSize=12;fontColor=#9E9E9E;align=left;verticalAlign=top;spacing=10;spacingTop=-4;whiteSpace=wrap;fillColor=#F1F8E9;fontFamily=Helvetica;" parent="JeXXdCt3tAEtwgr_0Mxh-139" vertex="1">
          <mxGeometry width="231" height="214" as="geometry" />
        </mxCell>
        <mxCell id="JeXXdCt3tAEtwgr_0Mxh-136" value="" style="group" parent="JeXXdCt3tAEtwgr_0Mxh-139" vertex="1" connectable="0">
          <mxGeometry x="13" y="40" width="200" height="150" as="geometry" />
        </mxCell>
        <mxCell id="JeXXdCt3tAEtwgr_0Mxh-130" value="" style="strokeColor=#dddddd;shadow=1;strokeWidth=1;rounded=1;absoluteArcSize=1;arcSize=2;fontFamily=Helvetica;fontSize=12;fontColor=default;" parent="JeXXdCt3tAEtwgr_0Mxh-136" vertex="1">
          <mxGeometry width="200" height="60" as="geometry" />
        </mxCell>
        <mxCell id="JeXXdCt3tAEtwgr_0Mxh-131" value="&lt;font color=&quot;#000000&quot;&gt;serena-shsw-datasets&lt;/font&gt;&lt;br&gt;Cloud Storage" style="editableCssRules=.*;html=1;fontColor=#999999;shape=image;verticalLabelPosition=middle;labelBackgroundColor=#ffffff;verticalAlign=middle;labelPosition=right;align=left;spacingLeft=20;part=1;points=[];imageAspect=0;image=data:image/svg+xml,PHN2ZyB4bWxucz0iaHR0cDovL3d3dy53My5vcmcvMjAwMC9zdmciIHhtbG5zOnY9Imh0dHBzOi8vdmVjdGEuaW8vbmFubyIgd2lkdGg9IjIwIiBoZWlnaHQ9IjE2IiB2aWV3Qm94PSIwIDAgMjAgMTYiPiYjeGE7CTxzdHlsZSB0eXBlPSJ0ZXh0L2NzcyI+JiN4YTsJLnN0MHtmaWxsOiM0Mjg1ZjQ7fSYjeGE7CS5zdDF7ZmlsbDojNjY5ZGY2O30mI3hhOwkuc3Qye2ZpbGw6I2FlY2JmYTt9JiN4YTsJLnN0M3tmaWxsOiNmZmY7fSYjeGE7CTwvc3R5bGU+JiN4YTsJPHBhdGggY2xhc3M9InN0MiIgZD0iTTAgMGgyMHY3SDB6Ii8+JiN4YTsJPHBhdGggY2xhc3M9InN0MSIgZD0iTTE4IDBoMnY3aC0yeiIvPiYjeGE7CTxwYXRoIGNsYXNzPSJzdDAiIGQ9Ik0xOCA3bDItN2gtMnoiLz4mI3hhOwk8cGF0aCBjbGFzcz0ic3QxIiBkPSJNMCAwaDJ2N0gweiIvPiYjeGE7CTxnIGNsYXNzPSJzdDMiPiYjeGE7CQk8cGF0aCBkPSJNNCAzaDZ2MUg0eiIvPiYjeGE7CQk8cmVjdCB4PSIxMyIgeT0iMiIgd2lkdGg9IjMiIGhlaWdodD0iMyIgcng9IjEuNSIvPiYjeGE7CTwvZz4mI3hhOwk8cGF0aCBjbGFzcz0ic3QyIiBkPSJNMCA5aDIwdjdIMHoiLz4mI3hhOwk8cGF0aCBjbGFzcz0ic3QxIiBkPSJNMTggOWgydjdoLTJ6Ii8+JiN4YTsJPHBhdGggY2xhc3M9InN0MCIgZD0iTTE4IDE2bDItN2gtMnoiLz4mI3hhOwk8cGF0aCBjbGFzcz0ic3QxIiBkPSJNMCA5aDJ2N0gweiIvPiYjeGE7CTxnIGNsYXNzPSJzdDMiPiYjeGE7CQk8cGF0aCBkPSJNNCAxMmg2djFINHoiLz4mI3hhOwkJPHJlY3QgeD0iMTMiIHk9IjExIiB3aWR0aD0iMyIgaGVpZ2h0PSIzIiByeD0iMS41Ii8+JiN4YTsJPC9nPiYjeGE7PC9zdmc+;fontFamily=Helvetica;fontSize=12;" parent="JeXXdCt3tAEtwgr_0Mxh-130" vertex="1">
          <mxGeometry width="30" height="24" relative="1" as="geometry">
            <mxPoint x="15" y="18" as="offset" />
          </mxGeometry>
        </mxCell>
        <mxCell id="JeXXdCt3tAEtwgr_0Mxh-132" value="" style="strokeColor=#dddddd;shadow=1;strokeWidth=1;rounded=1;absoluteArcSize=1;arcSize=2;fontFamily=Helvetica;fontSize=12;fontColor=default;" parent="JeXXdCt3tAEtwgr_0Mxh-136" vertex="1">
          <mxGeometry y="90" width="200" height="60" as="geometry" />
        </mxCell>
        <mxCell id="JeXXdCt3tAEtwgr_0Mxh-133" value="&lt;font color=&quot;#000000&quot;&gt;serena-shsw-app&lt;/font&gt;&lt;br&gt;Cloud Storage" style="editableCssRules=.*;html=1;fontColor=#999999;shape=image;verticalLabelPosition=middle;labelBackgroundColor=#ffffff;verticalAlign=middle;labelPosition=right;align=left;spacingLeft=20;part=1;points=[];imageAspect=0;image=data:image/svg+xml,PHN2ZyB4bWxucz0iaHR0cDovL3d3dy53My5vcmcvMjAwMC9zdmciIHhtbG5zOnY9Imh0dHBzOi8vdmVjdGEuaW8vbmFubyIgd2lkdGg9IjIwIiBoZWlnaHQ9IjE2IiB2aWV3Qm94PSIwIDAgMjAgMTYiPiYjeGE7CTxzdHlsZSB0eXBlPSJ0ZXh0L2NzcyI+JiN4YTsJLnN0MHtmaWxsOiM0Mjg1ZjQ7fSYjeGE7CS5zdDF7ZmlsbDojNjY5ZGY2O30mI3hhOwkuc3Qye2ZpbGw6I2FlY2JmYTt9JiN4YTsJLnN0M3tmaWxsOiNmZmY7fSYjeGE7CTwvc3R5bGU+JiN4YTsJPHBhdGggY2xhc3M9InN0MiIgZD0iTTAgMGgyMHY3SDB6Ii8+JiN4YTsJPHBhdGggY2xhc3M9InN0MSIgZD0iTTE4IDBoMnY3aC0yeiIvPiYjeGE7CTxwYXRoIGNsYXNzPSJzdDAiIGQ9Ik0xOCA3bDItN2gtMnoiLz4mI3hhOwk8cGF0aCBjbGFzcz0ic3QxIiBkPSJNMCAwaDJ2N0gweiIvPiYjeGE7CTxnIGNsYXNzPSJzdDMiPiYjeGE7CQk8cGF0aCBkPSJNNCAzaDZ2MUg0eiIvPiYjeGE7CQk8cmVjdCB4PSIxMyIgeT0iMiIgd2lkdGg9IjMiIGhlaWdodD0iMyIgcng9IjEuNSIvPiYjeGE7CTwvZz4mI3hhOwk8cGF0aCBjbGFzcz0ic3QyIiBkPSJNMCA5aDIwdjdIMHoiLz4mI3hhOwk8cGF0aCBjbGFzcz0ic3QxIiBkPSJNMTggOWgydjdoLTJ6Ii8+JiN4YTsJPHBhdGggY2xhc3M9InN0MCIgZD0iTTE4IDE2bDItN2gtMnoiLz4mI3hhOwk8cGF0aCBjbGFzcz0ic3QxIiBkPSJNMCA5aDJ2N0gweiIvPiYjeGE7CTxnIGNsYXNzPSJzdDMiPiYjeGE7CQk8cGF0aCBkPSJNNCAxMmg2djFINHoiLz4mI3hhOwkJPHJlY3QgeD0iMTMiIHk9IjExIiB3aWR0aD0iMyIgaGVpZ2h0PSIzIiByeD0iMS41Ii8+JiN4YTsJPC9nPiYjeGE7PC9zdmc+;fontFamily=Helvetica;fontSize=12;" parent="JeXXdCt3tAEtwgr_0Mxh-132" vertex="1">
          <mxGeometry width="30" height="24" relative="1" as="geometry">
            <mxPoint x="15" y="18" as="offset" />
          </mxGeometry>
        </mxCell>
        <mxCell id="JeXXdCt3tAEtwgr_0Mxh-140" style="edgeStyle=orthogonalEdgeStyle;shape=connector;rounded=0;orthogonalLoop=1;jettySize=auto;html=1;dashed=0;labelBackgroundColor=default;strokeColor=#4284F3;strokeWidth=2;align=center;verticalAlign=middle;fontFamily=Helvetica;fontSize=12;fontColor=default;endArrow=blockThin;endFill=1;startSize=4;endSize=4;startArrow=blockThin;startFill=1;" parent="1" source="JeXXdCt3tAEtwgr_0Mxh-135" target="JeXXdCt3tAEtwgr_0Mxh-93" edge="1">
          <mxGeometry relative="1" as="geometry">
            <Array as="points">
              <mxPoint x="400" y="255" />
            </Array>
          </mxGeometry>
        </mxCell>
        <mxCell id="JeXXdCt3tAEtwgr_0Mxh-151" value="" style="group" parent="1" vertex="1" connectable="0">
          <mxGeometry x="529.5" y="350" width="210" height="68" as="geometry" />
        </mxCell>
        <mxCell id="JeXXdCt3tAEtwgr_0Mxh-146" value="" style="shape=mxgraph.gcp2.doubleRect;strokeColor=#dddddd;shadow=1;strokeWidth=1;rounded=1;absoluteArcSize=1;arcSize=2;" parent="JeXXdCt3tAEtwgr_0Mxh-151" vertex="1">
          <mxGeometry width="210" height="68" as="geometry" />
        </mxCell>
        <mxCell id="JeXXdCt3tAEtwgr_0Mxh-89" value="" style="sketch=0;html=1;verticalAlign=top;labelPosition=center;verticalLabelPosition=bottom;align=center;spacingTop=-6;fontSize=11;fontStyle=1;fontColor=#999999;shape=image;aspect=fixed;imageAspect=0;image=data:image/svg+xml,PHN2ZyB4bWxucz0iaHR0cDovL3d3dy53My5vcmcvMjAwMC9zdmciIGlkPSJzdmc1IiB2ZXJzaW9uPSIxLjEiIHZpZXdCb3g9IjAgMCAyMzkuNzA4MjUgMjc0Ljg2MzI4IiBoZWlnaHQ9IjI3NC44NjMyOG1tIiB3aWR0aD0iMjM5LjcwODI1bW0iPiYjeGE7ICAmI3hhOyAgPGRlZnMgaWQ9ImRlZnMyIi8+JiN4YTsgIDxnIHRyYW5zZm9ybT0idHJhbnNsYXRlKC02Ni42ODYzNjEsNjAuMjU5NzY2KSIgaWQ9ImxheWVyMSI+JiN4YTsgICAgPGcgc3R5bGU9Im9wYWNpdHk6MC45OSIgaWQ9InBhdGg4NjkiLz4mI3hhOyAgICA8ZyBzdHlsZT0ib3BhY2l0eTowLjk5IiBpZD0icGF0aDg2OS0yIi8+JiN4YTsgICAgPGcgc3R5bGU9Im9wYWNpdHk6MC45OSIgaWQ9InBhdGg4NjktMyIvPiYjeGE7ICAgIDxnIHN0eWxlPSJvcGFjaXR5OjAuOTkiIGlkPSJwYXRoODY5LTEiLz4mI3hhOyAgICA8ZyBzdHlsZT0ib3BhY2l0eTowLjk5IiBpZD0icGF0aDg2OS04Ii8+JiN4YTsgICAgPGcgc3R5bGU9Im9wYWNpdHk6MC45OSIgaWQ9InBhdGg4NzEiPiYjeGE7ICAgICAgPHBhdGggaWQ9InBhdGgzMzU3IiBkPSJtIDc3LjE4Njc3NSwxMTAuODgyNTIgOTQuMjM5Njk1LDY5Ljc0NTc1IiBzdHlsZT0iY29sb3I6IzAwMDAwMDtmaWxsOiMwMDgwMDA7c3Ryb2tlLXdpZHRoOjIxO3N0cm9rZS1saW5lY2FwOnJvdW5kOy1pbmtzY2FwZS1zdHJva2U6bm9uZSIvPiYjeGE7ICAgIDwvZz4mI3hhOyAgICA8ZyBzdHlsZT0ib3BhY2l0eTowLjk5IiBpZD0icGF0aDg3MyIvPiYjeGE7ICAgIDxwYXRoIGQ9Im0gMTUzLjA4MTIsMTA5LjAzNTY4IGMgMCw2LjEyMDQ3IC00Ljk2MTYyLDExLjA4MjA5IC0xMS4wODIwOSwxMS4wODIwOSAtNi4xMjA0NywwIC0xMS4wODIwOCwtNC45NjE2MiAtMTEuMDgyMDgsLTExLjA4MjA5IDAsLTYuMTIwNDYgNC45NjE2MiwtMTEuMDgyMDgyIDExLjA4MjA4LC0xMS4wODIwODcgNi4xMjA0NywtMTBlLTcgMTEuMDgyMDksNC45NjE2MTcgMTEuMDgyMDksMTEuMDgyMDg3IHogbSAwLC05Mi41MTMzODEgYyAwLDYuMTIwNDY5IC00Ljk2MTYyLDExLjA4MjA5IC0xMS4wODIwOSwxMS4wODIwODkgLTYuMTIwNDcsLTVlLTYgLTExLjA4MjA4LC00Ljk2MTYyNCAtMTEuMDgyMDgsLTExLjA4MjA4OSAwLC02LjEyMDQ2NSA0Ljk2MTYxLC0xMS4wODIwODQ2IDExLjA4MjA4LC0xMS4wODIwODk2IDYuMTIwNDcsLTZlLTcgMTEuMDgyMDksNC45NjE2MjA2IDExLjA4MjA5LDExLjA4MjA4OTYgeiBtIDAsLTMyLjkyMTY4MyBjIDAsNi4xMjA0NjkgLTQuOTYxNjIsMTEuMDgyMDkwNSAtMTEuMDgyMDksMTEuMDgyMDg5OSAtNi4xMjA0NywtNWUtNiAtMTEuMDgyMDgsLTQuOTYxNjIzOSAtMTEuMDgyMDgsLTExLjA4MjA4OTkgMCwtNi4xMjA0NjUgNC45NjE2MSwtMTEuMDgyMDg0IDExLjA4MjA4LC0xMS4wODIwODkgNi4xMjA0NywtMTBlLTcgMTEuMDgyMDksNC45NjE2MiAxMS4wODIwOSwxMS4wODIwODkgeiBNIDEwOC43NDE4MSw3Ni43MTgwMSBjIDAsNi4xMjA0NjkgLTQuOTYxNjIsMTEuMDgyMDg5IC0xMS4wODIwODksMTEuMDgyMDg5IC02LjEyMDQ2OSwwIC0xMS4wODIwODksLTQuOTYxNjIgLTExLjA4MjA4OSwtMTEuMDgyMDg5IDAsLTYuMTIwNDY5IDQuOTYxNjIsLTExLjA4MjA4OSAxMS4wODIwODksLTExLjA4MjA4OSA2LjEyMDQ2OSwwIDExLjA4MjA4OSw0Ljk2MTYyIDExLjA4MjA4OSwxMS4wODIwODkgeiBtIDAsLTMyLjY4MDYyNiBjIDAsNi4xMjA0NjkgLTQuOTYxNjIsMTEuMDgyMDg5IC0xMS4wODIwODksMTEuMDgyMDg5IC02LjEyMDQ2OSwwIC0xMS4wODIwODksLTQuOTYxNjIgLTExLjA4MjA4OSwtMTEuMDgyMDg5IDAsLTYuMTIwNDY5IDQuOTYxNjIsLTExLjA4MjA4OSAxMS4wODIwODksLTExLjA4MjA4OSA2LjEyMDQ2OSwwIDExLjA4MjA4OSw0Ljk2MTYyIDExLjA4MjA4OSwxMS4wODIwODkgeiBtIDAsLTMyLjY3ODI0MyBjIDAsNi4xMjA0NjkgLTQuOTYxNjIsMTEuMDgyMDkgLTExLjA4MjA4OSwxMS4wODIwOSAtNi4xMjA0NjksMCAtMTEuMDgyMDksLTQuOTYxNjIxIC0xMS4wODIwODksLTExLjA4MjA5IDAsLTYuMTIwNDY4OCA0Ljk2MTYyLC0xMS4wODIwODkwNyAxMS4wODIwODksLTExLjA4MjA4OTA3IDYuMTIwNDY5LDAgMTEuMDgyMDg5LDQuOTYxNjIwMjcgMTEuMDgyMDg5LDExLjA4MjA4OTA3IHogTSAxNDIsMzcuNzc5Mjk3IGMgLTUuNzk4OTksMCAtMTAuNSw0LjcwMTAxIC0xMC41LDEwLjUgdiAyOC45OTQxNCBjIDAsNS43OTg5OSA0LjcwMTAxLDEwLjUgMTAuNSwxMC41IDUuNzk4OTksMCAxMC41LC00LjcwMTAxIDEwLjUsLTEwLjUgdiAtMjguOTk0MTQgYyAwLC01Ljc5ODk5IC00LjcwMTAxLC0xMC41IC0xMC41LC0xMC41IHogbSAtOC45ZS00LDEwLjUwMDM3NyBWIDc3LjI3MzY5MSBNIDk3LjY2MDE1NiwtNjAuMjU5NzY2IGMgLTUuNzk4OTksMCAtMTAuNSw0LjcwMTAxIC0xMC41LDEwLjUgdiAyOC45OTQxNDEgYyAwLDUuNzk4OTkgNC43MDEwMSwxMC41IDEwLjUsMTAuNSA1Ljc5ODk5NCwyZS02IDEwLjUwMDAwNCwtNC43MDEwMDkgMTAuNTAwMDA0LC0xMC41IHYgLTI4Ljk5NDE0MSBjIDAsLTUuNzk4OTkxIC00LjcwMTAxLC0xMC41MDAwMDIgLTEwLjUwMDAwNCwtMTAuNSB6IG0gLTQuMzVlLTQsMTAuNDk5NzY1IHYgMjguOTk0MDE3IE0gNzUuNjM0NzY2LDEwMC40OTgwNSBjIC0yLjc1NDE5MSwwLjQxMTQ4IC01LjIzMjExOSwxLjkwMDIxIC02Ljg4ODY3Miw0LjEzODY3IC0zLjQ0ODg3NCw0LjY2MTU3IC0yLjQ2NjAyNCwxMS4yMzYzNSAyLjE5NTMxMiwxNC42ODU1NSBsIDk0LjIzODI4NCw2OS43NDYwOSAxMi43ODYwNCwtMTYuNjY2NTkgLTk0LjUzMjEzNiwtNjkuOTU4NDEgYyAtMi4yMzg2OTksLTEuNjU3MTYgLTUuMDQ0MTAxLC0yLjM1NjkzIC03Ljc5ODgyOCwtMS45NDUzMSB6IiBzdHlsZT0iY29sb3I6IzAwMDAwMDtvcGFjaXR5OjAuOTk7ZmlsbDojYjVjYmY5O2ZpbGwtb3BhY2l0eToxO3N0cm9rZS13aWR0aDoyMTtzdHJva2UtbGluZWNhcDpyb3VuZDtzdHJva2UtbGluZWpvaW46cm91bmQ7LWlua3NjYXBlLXN0cm9rZTpub25lIiBpZD0icGF0aDE4NDAtNSIvPiYjeGE7ICAgIDxwYXRoIGQ9Im0gMTk3LjM5Mjc2LDE0MS45NzM2NiBjIDAsNi4xMjA0NyAtNC45NjE2MiwxMS4wODIwOSAtMTEuMDgyMDksMTEuMDgyMDkgLTYuMTIwNDcsMCAtMTEuMDgyMDksLTQuOTYxNjIgLTExLjA4MjA5LC0xMS4wODIwOSAwLC02LjEyMDQ3IDQuOTYxNjIsLTExLjA4MjA5IDExLjA4MjA5LC0xMS4wODIwOSA2LjEyMDQ3LDAgMTEuMDgyMDksNC45NjE2MiAxMS4wODIwOSwxMS4wODIwOSB6IG0gMCwtOTIuNzI1NTg2IGMgMCw2LjEyMDQ2OSAtNC45NjE2MiwxMS4wODIwOSAtMTEuMDgyMDksMTEuMDgyMDg5IC02LjEyMDQ3LDFlLTYgLTExLjA4MjA5LC00Ljk2MTYyIC0xMS4wODIwOSwtMTEuMDgyMDg5IDAsLTYuMTIwNDcgNC45NjE2MiwtMTEuMDgyMDkxIDExLjA4MjA5LC0xMS4wODIwOSA2LjEyMDQ3LC0xZS02IDExLjA4MjA5LDQuOTYxNjIgMTEuMDgyMDksMTEuMDgyMDkgeiBtIDAsLTMyLjg1NDQ1OCBjIDAsNi4xMjA0NjkgLTQuOTYxNjIsMTEuMDgyMDkgLTExLjA4MjA5LDExLjA4MjA4OSAtNi4xMjA0NywxMGUtNyAtMTEuMDgyMDksLTQuOTYxNjIgLTExLjA4MjA5LC0xMS4wODIwODkgMCwtNi4xMjA0NjkgNC45NjE2MiwtMTEuMDgyMDkwMyAxMS4wODIwOSwtMTEuMDgyMDg5NyA2LjEyMDQ3LC02ZS03IDExLjA4MjA5LDQuOTYxNjIwNyAxMS4wODIwOSwxMS4wODIwODk3IHogbSAxMDAuMDI5MTEsODQuMDA2Nzc0IGMgLTIuNzU1MTcsLTAuNDA1MDA0IC01LjU1ODM4LDAuMzAxMDcgLTcuNzkyOTYsMS45NjI4OSBsIC05NC43NDYxLDcwLjQzNzUgMTIuNTI5MywxNi44NTM1MiA5NC43NDYwOSwtNzAuNDM3NSBjIDQuNjU0MTIsLTMuNDU5NzggNS42MjIxNSwtMTAuMDM3NDggMi4xNjIxMSwtMTQuNjkxNDEgLTEuNjYxMzYsLTIuMjM1NTMgLTQuMTQyODcsLTMuNzE5MzcgLTYuODk4NDQsLTQuMTI1IHogTSAxODYuMzEwNTUsNzAuODY3MTg3IGMgLTUuNzk4OTksMCAtMTAuNSw0LjcwMTAxIC0xMC41LDEwLjUgdiAyOC45OTQxNDMgYyAwLDUuNzk4OTkgNC43MDEwMSwxMC41IDEwLjUsMTAuNSA1Ljc5ODk5LDAgMTAuNSwtNC43MDEwMSAxMC41LC0xMC41IFYgODEuMzY3MTg3IGMgMCwtNS43OTg5OSAtNC43MDEwMSwtMTAuNSAtMTAuNSwtMTAuNSB6IG0gMS4yZS00LDEwLjUwMDgyNyB2IDI4Ljk5NDAxNiIgc3R5bGU9ImNvbG9yOiMwMDAwMDA7b3BhY2l0eTowLjk5O2ZpbGw6Izc2OWVmNTtmaWxsLW9wYWNpdHk6MTtzdHJva2Utd2lkdGg6MjE7c3Ryb2tlLWxpbmVjYXA6cm91bmQ7c3Ryb2tlLWxpbmVqb2luOnJvdW5kOy1pbmtzY2FwZS1zdHJva2U6bm9uZSIgaWQ9InBhdGgxODQwLTMiLz4mI3hhOyAgICA8cGF0aCBkPSJtIDE4Ni4zNDU3LDE3MC42ODE2NCBjIC0xMi4wNDU3LDAgLTIxLjk2MDkzLDkuOTE1MjQgLTIxLjk2MDkzLDIxLjk2MDk0IDAsMTIuMDQ1NyA5LjkxNTIzLDIxLjk2MDk0IDIxLjk2MDkzLDIxLjk2MDk0IDEyLjA0NTcsMCAyMS45NjA5NCwtOS45MTUyNCAyMS45NjA5NCwtMjEuOTYwOTQgMCwtMTIuMDQ1NyAtOS45MTUyNCwtMjEuOTYwOTQgLTIxLjk2MDk0LC0yMS45NjA5NCB6IG0gMCwxNCBjIDQuNDc5NTUsMCA3Ljk2MDk0LDMuNDgxMzkgNy45NjA5NCw3Ljk2MDk0IDAsNC40Nzk1NSAtMy40ODEzOSw3Ljk2MDk0IC03Ljk2MDk0LDcuOTYwOTQgLTQuNDc5NTQsMCAtNy45NjA5MywtMy40ODEzOSAtNy45NjA5MywtNy45NjA5NCAwLC00LjQ3OTU1IDMuNDgxMzksLTcuOTYwOTQgNy45NjA5MywtNy45NjA5NCB6IE0gMjg2LjE2MTM3LDc2Ljc5MTAwOCBBIDExLjA4MjA4OSwxMS4wODIwODkgMCAwIDEgMjc1LjA3OTI4LDg3Ljg3MzA5NyAxMS4wODIwODksMTEuMDgyMDg5IDAgMCAxIDI2My45OTcyLDc2Ljc5MTAwOCAxMS4wODIwODksMTEuMDgyMDg5IDAgMCAxIDI3NS4wNzkyOCw2NS43MDg5MTkgMTEuMDgyMDg5LDExLjA4MjA4OSAwIDAgMSAyODYuMTYxMzcsNzYuNzkxMDA4IFogbSAwLC0zMy4xNDU0MzUgYSAxMS4wODIwODksMTEuMDgyMDg5IDAgMCAxIC0xMS4wODIwOSwxMS4wODIwODkgMTEuMDgyMDg5LDExLjA4MjA4OSAwIDAgMSAtMTEuMDgyMDgsLTExLjA4MjA4OSAxMS4wODIwODksMTEuMDgyMDg5IDAgMCAxIDExLjA4MjA4LC0xMS4wODIwOSAxMS4wODIwODksMTEuMDgyMDg5IDAgMCAxIDExLjA4MjA5LDExLjA4MjA5IHogbSAwLC05Mi40NjgyMjQgYSAxMS4wODIwODksMTEuMDgyMDg5IDAgMCAxIC0xMS4wODIwOSwxMS4wODIwOSAxMS4wODIwODksMTEuMDgyMDg5IDAgMCAxIC0xMS4wODIwOCwtMTEuMDgyMDkgMTEuMDgyMDg5LDExLjA4MjA4OSAwIDAgMSAxMS4wODIwOCwtMTEuMDgyMDg5IDExLjA4MjA4OSwxMS4wODIwODkgMCAwIDEgMTEuMDgyMDksMTEuMDgyMDg5IHogbSAtNDQuMjEzNjIsMzIuNTU3NzE2IGEgMTEuMDgyMDg5LDExLjA4MjA4OSAwIDAgMSAtMTEuMDgyMDksMTEuMDgyMDg5OSAxMS4wODIwODksMTEuMDgyMDg5IDAgMCAxIC0xMS4wODIwOSwtMTEuMDgyMDg5OSAxMS4wODIwODksMTEuMDgyMDg5IDAgMCAxIDExLjA4MjA5LC0xMS4wODIwODkgMTEuMDgyMDg5LDExLjA4MjA4OSAwIDAgMSAxMS4wODIwOSwxMS4wODIwODkgeiBtIDAsOTIuNTM1NDQzIGEgMTEuMDgyMDg5LDExLjA4MjA4OSAwIDAgMSAtMTEuMDgyMDksMTEuMDgyMDg5IDExLjA4MjA4OSwxMS4wODIwODkgMCAwIDEgLTExLjA4MjA5LC0xMS4wODIwODkgMTEuMDgyMDg5LDExLjA4MjA4OSAwIDAgMSAxMS4wODIwOSwtMTEuMDgyMDkgMTEuMDgyMDg5LDExLjA4MjA4OSAwIDAgMSAxMS4wODIwOSwxMS4wODIwOSB6IG0gMCwzMi44ODIzMTIgYSAxMS4wODIwODksMTEuMDgyMDg5IDAgMCAxIC0xMS4wODIwOSwxMS4wODIwOSAxMS4wODIwODksMTEuMDgyMDg5IDAgMCAxIC0xMS4wODIwOSwtMTEuMDgyMDkgMTEuMDgyMDg5LDExLjA4MjA4OSAwIDAgMSAxMS4wODIwOSwtMTEuMDgyMDkzIDExLjA4MjA4OSwxMS4wODIwODkgMCAwIDEgMTEuMDgyMDksMTEuMDgyMDkzIHogbSAzMy4xMzIzMywtMTM2LjU4ODM2NyBhIDEwLjUsMTAuNSAwIDAgMCAtMTAuNSwxMC41IHYgMjguOTk0MTQxIGEgMTAuNSwxMC41IDAgMCAwIDEwLjUsMTAuNSAxMC41LDEwLjUgMCAwIDAgMTAuNSwtMTAuNSB2IC0yOC45OTQxNDEgYSAxMC41LDEwLjUgMCAwIDAgLTEwLjUsLTEwLjUgeiBtIC04ZS00LDEwLjUwMDc1OSBWIDEyLjA1OTIyOSBNIDIzMC44NjUyMyw1LjI0MDIzNDQgYSAxMC41LDEwLjUgMCAwIDAgLTEwLjUsMTAuNDk5OTk5NiB2IDI4Ljk5NDE0MSBhIDEwLjUsMTAuNSAwIDAgMCAxMC41LDEwLjUgMTAuNSwxMC41IDAgMCAwIDEwLjUsLTEwLjUgViAxNS43NDAyMzQgYSAxMC41LDEwLjUgMCAwIDAgLTEwLjUsLTEwLjQ5OTk5OTYgeiBtIDQuMmUtNCwxMC40OTk0MzA2IHYgMjguOTk0MDE3IiBzdHlsZT0iY29sb3I6IzAwMDAwMDtvcGFjaXR5OjAuOTk7ZmlsbDojNTk4NmYyO2ZpbGwtb3BhY2l0eToxO3N0cm9rZS1saW5lY2FwOnJvdW5kO3N0cm9rZS1saW5lam9pbjpyb3VuZDstaW5rc2NhcGUtc3Ryb2tlOm5vbmUiIGlkPSJwYXRoMTg0MC04Ii8+JiN4YTsgIDwvZz4mI3hhOzwvc3ZnPg==;" parent="JeXXdCt3tAEtwgr_0Mxh-151" vertex="1">
          <mxGeometry x="10" y="10" width="37" height="42" as="geometry" />
        </mxCell>
        <mxCell id="JeXXdCt3tAEtwgr_0Mxh-150" value="serena-emotion-detector&lt;br&gt;&lt;font color=&quot;#999999&quot;&gt;Vertex&amp;nbsp;AI&lt;/font&gt;" style="text;html=1;align=left;verticalAlign=middle;resizable=0;points=[];autosize=1;strokeColor=none;fillColor=none;fontSize=12;fontFamily=Helvetica;fontColor=default;" parent="JeXXdCt3tAEtwgr_0Mxh-151" vertex="1">
          <mxGeometry x="60" y="11" width="150" height="40" as="geometry" />
        </mxCell>
        <mxCell id="JeXXdCt3tAEtwgr_0Mxh-154" style="edgeStyle=orthogonalEdgeStyle;shape=connector;rounded=0;orthogonalLoop=1;jettySize=auto;html=1;dashed=0;labelBackgroundColor=default;strokeColor=#4284F3;strokeWidth=2;align=center;verticalAlign=middle;fontFamily=Helvetica;fontSize=12;fontColor=default;endArrow=blockThin;endFill=1;startSize=4;endSize=4;startArrow=blockThin;startFill=1;" parent="1" source="JeXXdCt3tAEtwgr_0Mxh-146" target="JeXXdCt3tAEtwgr_0Mxh-135" edge="1">
          <mxGeometry relative="1" as="geometry" />
        </mxCell>
      </root>
    </mxGraphModel>
  </diagram>
</mxfile>
